<svg width="16" height="16" viewBox="0 0 16 16" fill="none" xmlns="http://www.w3.org/2000/svg">
<g clip-path="url(#clip0_14906:249725)">
<path d="M13 15H3V1H11.5L13 2.5V15Z" fill="white"/>
<path d="M10 6H7V7H10V6Z" fill="#ADB1B2"/>
<path d="M10 8H4V9H10V8Z" fill="#ADB1B2"/>
<path d="M10 10H4V11H10V10Z" fill="#ADB1B2"/>
<path d="M4 8V13H5V8H4Z" fill="#ADB1B2"/>
<path d="M7 6V12H8V6H7Z" fill="#ADB1B2"/>
<path d="M8 12H4V13H8V12Z" fill="#ADB1B2"/>
<path d="M11 12V7H14V12H16L12.5 16L9 12H11Z" fill="#75AD15"/>
<path d="M11 6H7V7H11V6Z" fill="#ADB1B2"/>
<path d="M3.5 6.99998C3.43825 7.00405 3.37631 6.99588 3.31772 6.97595C3.25914 6.95602 3.20507 6.92471 3.15861 6.88383C3.11215 6.84295 3.07423 6.7933 3.04701 6.73772C3.01979 6.68215 3.00382 6.62174 3 6.55998V0.439979C3.00382 0.378214 3.01979 0.317811 3.04701 0.262236C3.07423 0.206661 3.11215 0.157008 3.15861 0.116127C3.20507 0.0752458 3.25914 0.0439411 3.31772 0.0240093C3.37631 0.00407756 3.43825 -0.00408879 3.5 -2.10745e-05C3.56175 -0.00408879 3.62369 0.00407756 3.68228 0.0240093C3.74086 0.0439411 3.79493 0.0752458 3.84139 0.116127C3.88785 0.157008 3.92577 0.206661 3.95299 0.262236C3.98021 0.317811 3.99618 0.378214 4 0.439979V6.55998C3.99618 6.62174 3.98021 6.68215 3.95299 6.73772C3.92577 6.7933 3.88785 6.84295 3.84139 6.88383C3.79493 6.92471 3.74086 6.95602 3.68228 6.97595C3.62369 6.99588 3.56175 7.00405 3.5 6.99998Z" fill="#D59633"/>
<path d="M6.55994 4H0.439945C0.376342 3.99631 0.314154 3.97972 0.25716 3.95125C0.200165 3.92278 0.149554 3.88302 0.108401 3.83438C0.0672479 3.78575 0.0364126 3.72925 0.0177683 3.66833C-0.000876026 3.60741 -0.00693999 3.54334 -5.51906e-05 3.48C-0.002883 3.35866 0.0413399 3.24093 0.123355 3.15146C0.20537 3.06199 0.318817 3.00771 0.439945 3H6.55994C6.62171 3.00382 6.68211 3.01979 6.73769 3.04701C6.79326 3.07423 6.84292 3.11215 6.8838 3.15861C6.92468 3.20507 6.95598 3.25914 6.97591 3.31772C6.99585 3.37631 7.00401 3.43825 6.99994 3.5C7.00401 3.56175 6.99585 3.62369 6.97591 3.68228C6.95598 3.74086 6.92468 3.79493 6.8838 3.84139C6.84292 3.88785 6.79326 3.92577 6.73769 3.95299C6.68211 3.98021 6.62171 3.99618 6.55994 4Z" fill="#D59633"/>
<path d="M1.50006 5.99998C1.40219 5.9986 1.30689 5.96853 1.22595 5.9135C1.14501 5.85847 1.08201 5.7809 1.04474 5.6904C1.00748 5.5999 0.997591 5.50045 1.01631 5.40439C1.03503 5.30832 1.08154 5.21986 1.15006 5.14998L5.15006 1.14998C5.24421 1.05582 5.37191 1.00293 5.50506 1.00293C5.63821 1.00293 5.76591 1.05582 5.86006 1.14998C5.95421 1.24413 6.0071 1.37182 6.0071 1.50498C6.0071 1.63813 5.95421 1.76582 5.86006 1.85998L1.86006 5.85998C1.81233 5.90602 1.75593 5.94211 1.69412 5.96614C1.63232 5.99018 1.56635 6.00168 1.50006 5.99998Z" fill="#D59633"/>
<path d="M5.48997 6.00003C5.6251 5.9997 5.75458 5.94575 5.84997 5.85003C5.89683 5.80354 5.93403 5.74824 5.95941 5.68731C5.9848 5.62639 5.99786 5.56103 5.99786 5.49503C5.99786 5.42902 5.9848 5.36367 5.95941 5.30274C5.93403 5.24181 5.89683 5.18651 5.84997 5.14003L1.84997 1.14003C1.75581 1.04587 1.62812 0.992981 1.49497 0.992981C1.36181 0.992981 1.23412 1.04587 1.13997 1.14003C1.04581 1.23418 0.99292 1.36188 0.99292 1.49503C0.99292 1.62818 1.04581 1.75587 1.13997 1.85003L5.13997 5.85003C5.18534 5.89712 5.23969 5.93465 5.2998 5.96042C5.35991 5.98618 5.42457 5.99965 5.48997 6.00003Z" fill="#D59633"/>
<path d="M3.5 4C3.77614 4 4 3.77614 4 3.5C4 3.22386 3.77614 3 3.5 3C3.22386 3 3 3.22386 3 3.5C3 3.77614 3.22386 4 3.5 4Z" fill="white"/>
<path d="M8 8H4V9H8V8Z" fill="#ADB1B2"/>
<path d="M6 10H4V11H6V10Z" fill="#ADB1B2"/>
<path d="M6 12H4V13H6V12Z" fill="#ADB1B2"/>
<path d="M9 4H7V5H9V4Z" fill="#667F94"/>
<path d="M9 2H7V3H9V2Z" fill="#7DA7B5"/>
<path fill-rule="evenodd" clip-rule="evenodd" d="M7 0H11.4L14 2.6V6H13V4H11C10.7348 4 10.4804 3.89464 10.2929 3.70711C10.1054 3.51957 10 3.26522 10 3V1H7V0ZM11 1V3H13L11 1Z" fill="#798288"/>
<path d="M2 7V15C2 15.2652 2.10536 15.5196 2.29289 15.7071C2.48043 15.8946 2.73478 16 3 16H10L9 15H3V7H2Z" fill="#798288"/>
</g>
<defs>
<clipPath id="clip0_14906:249725">
<rect width="16" height="16" fill="white"/>
</clipPath>
</defs>
</svg>
