<svg id="Layer_1" data-name="Layer 1" xmlns="http://www.w3.org/2000/svg" viewBox="0 0 32 32"><title>powerofattorney_32</title><polygon points="26 29 6 29 6 2 22 2 26 6 26 29" fill="#fff"/><path d="M26,7V29H6V2H21l5,5M21.5,0H5A1,1,0,0,0,4,1V30a1,1,0,0,0,1,1H27a1,1,0,0,0,1-1V6.5Z" fill="#9da2a5"/><path d="M26,6H22V2M20,0V7a1,1,0,0,0,1,1h7Z" fill="#9da2a5"/><rect x="8" y="15" width="16" height="2" fill="#adb1b2"/><rect x="12" y="11" width="8" height="2" fill="#adb1b2"/><rect x="8" y="19" width="16" height="2" fill="#adb1b2"/><rect x="16" y="23" width="8" height="2" fill="#444c56"/></svg>