<svg id="Layer_1" data-name="Layer 1" xmlns="http://www.w3.org/2000/svg" viewBox="0 0 16 16"><title>Contact_small</title><rect x="1" y="5" width="14" height="9" fill="#fff"/><path d="M5.79,10.23L4.66,9.78A2.13,2.13,0,0,1,4.6,9.29a3,3,0,0,0,.35-1.45,0.86,0.86,0,0,0-.31-0.65A0.84,0.84,0,0,0,4,7a0.9,0.9,0,0,0-.54.15,0.87,0.87,0,0,0-.39.69A2.54,2.54,0,0,0,3.4,9.28a1.27,1.27,0,0,1-.07.51l-1.12.44a0.37,0.37,0,0,0-.21.32V12H6V10.54A0.45,0.45,0,0,0,5.79,10.23Z" fill="#adb1b2"/><rect x="7" y="7" width="7" height="1" fill="#adb1b2"/><rect x="7" y="9" width="7" height="1" fill="#adb1b2"/><rect x="7" y="11" width="7" height="1" fill="#adb1b2"/><path d="M15,1H8.91A1.49,1.49,0,0,0,6.09,1H1A1,1,0,0,0,0,2V5H16V2A1,1,0,0,0,15,1Z" fill="#ce846c"/><path d="M8,3V1.5a0.5,0.5,0,0,0-1,0V3H8Z" fill="#fff"/><path d="M15,5v9H1V5H0v9a1,1,0,0,0,1,1H15a1,1,0,0,0,1-1V5H15Z" fill="#798288"/></svg>